<svg xmlns="http://www.w3.org/2000/svg" viewBox="0 0 50 50"><path d="M42.960938 4.980469C42.886719 4.984375 42.8125 4.988281 42.738281 5L27 5C26.277344 4.988281 25.609375 5.367188 25.246094 5.992188C24.878906 6.613281 24.878906 7.386719 25.246094 8.007813C25.609375 8.632813 26.277344 9.011719 27 9L38.171875 9L5.585938 41.585938C5.0625 42.085938 4.851563 42.832031 5.035156 43.535156C5.21875 44.234375 5.765625 44.78125 6.464844 44.964844C7.167969 45.148438 7.914063 44.9375 8.414063 44.414063L41 11.828125L41 23C40.988281 23.722656 41.367188 24.390625 41.992188 24.753906C42.613281 25.121094 43.386719 25.121094 44.007813 24.753906C44.632813 24.390625 45.011719 23.722656 45 23L45 7.242188C45.023438 7.066406 45.023438 6.890625 45 6.710938L45 5L43.292969 5C43.183594 4.984375 43.070313 4.976563 42.960938 4.980469Z"/></svg>