<svg xmlns="http://www.w3.org/2000/svg" viewBox="0 0 50 50">
  <path d="M25 2C12.316406 2 2 12.316406 2 25C2 37.683594 12.316406 48 25 48C37.683594 48 48 37.683594 48 25C48 12.316406 37.683594 2 25 2 Z M 37.707031 25.707031L29.707031 33.707031C29.511719 33.902344 29.257813 34 29 34C28.742188 34 28.488281 33.902344 28.292969 33.707031C27.902344 33.316406 27.902344 32.683594 28.292969 32.292969L34.585938 26L13 26C12.449219 26 12 25.550781 12 25C12 24.449219 12.449219 24 13 24L34.585938 24L28.292969 17.707031C27.902344 17.316406 27.902344 16.683594 28.292969 16.292969C28.683594 15.902344 29.316406 15.902344 29.707031 16.292969L37.707031 24.292969C37.800781 24.382813 37.871094 24.496094 37.921875 24.617188C38.023438 24.863281 38.023438 25.136719 37.921875 25.382813C37.871094 25.503906 37.800781 25.613281 37.707031 25.707031Z" fill="#FFFFFF" />
</svg>